<svg id="svg" version="1.1" xmlns="http://www.w3.org/2000/svg" xmlns:xlink="http://www.w3.org/1999/xlink" width="400" height="300" viewBox="0, 0, 400,300"><g id="svgg"><path id="path0" d="M146.888 114.406 C 146.633 114.549,146.501 114.790,146.596 114.943 C 146.690 115.096,146.834 124.439,146.917 135.705 C 146.999 146.971,147.126 156.477,147.199 156.829 C 147.329 157.463,147.442 157.472,157.632 157.690 C 169.867 157.953,169.246 158.048,171.766 155.516 L 173.743 153.529 173.743 139.517 C 173.743 127.516,173.680 125.452,173.300 125.137 C 172.970 124.863,172.934 124.622,173.160 124.200 C 173.367 123.813,173.365 123.445,173.154 123.050 C 172.983 122.731,172.843 121.803,172.843 120.987 C 172.843 120.052,172.681 119.369,172.405 119.139 C 172.164 118.939,171.881 118.507,171.777 118.180 C 171.465 117.197,169.789 115.718,168.192 115.016 C 166.585 114.310,148.010 113.778,146.888 114.406 M120.336 146.456 C 120.751 147.905,122.490 150.735,124.830 153.773 C 125.641 154.825,129.445 158.727,129.554 158.618 C 129.730 158.442,127.811 155.739,127.511 155.739 C 127.357 155.739,127.232 155.536,127.232 155.289 C 127.232 155.041,127.063 154.838,126.857 154.837 C 126.650 154.836,126.160 154.363,125.768 153.786 C 125.375 153.210,124.951 152.738,124.825 152.738 C 124.699 152.738,124.519 152.434,124.425 152.063 C 124.330 151.692,123.877 150.977,123.417 150.475 C 122.957 149.973,122.405 149.230,122.190 148.825 C 121.975 148.419,121.540 147.591,121.223 146.985 C 120.461 145.527,119.988 145.245,120.336 146.456 " stroke="none" fill="#df9634" fill-rule="evenodd"></path><path id="path1" d="M126.182 112.943 C 124.180 113.509,122.430 114.590,122.098 115.466 C 121.929 115.913,121.496 116.595,121.135 116.980 L 120.480 117.682 120.576 131.808 C 120.680 147.072,120.553 145.735,122.190 148.825 C 122.405 149.230,122.957 149.973,123.417 150.475 C 123.877 150.977,124.330 151.692,124.425 152.063 C 124.519 152.434,124.699 152.738,124.825 152.738 C 124.951 152.738,125.375 153.210,125.768 153.786 C 126.160 154.363,126.650 154.836,126.857 154.837 C 127.063 154.838,127.232 155.041,127.232 155.289 C 127.232 155.536,127.365 155.739,127.528 155.739 C 127.691 155.739,128.178 156.298,128.609 156.982 C 129.124 157.798,129.470 158.102,129.616 157.866 C 129.763 157.628,130.337 157.560,131.311 157.665 C 132.121 157.752,137.104 157.907,142.386 158.010 C 147.667 158.113,154.959 158.300,158.590 158.425 C 168.434 158.765,169.627 158.616,171.112 156.859 C 173.499 154.034,173.700 153.651,171.826 155.496 C 169.233 158.050,169.864 157.952,157.632 157.690 C 147.442 157.472,147.329 157.463,147.199 156.829 C 147.126 156.477,146.999 146.971,146.917 135.705 C 146.834 124.439,146.691 115.097,146.597 114.945 C 145.933 113.871,166.029 113.956,168.328 115.037 C 169.828 115.743,171.482 117.250,171.777 118.180 C 171.881 118.507,172.164 118.939,172.405 119.139 C 172.681 119.369,172.843 120.052,172.843 120.987 C 172.843 121.803,172.983 122.731,173.154 123.050 C 173.365 123.445,173.367 123.813,173.160 124.200 C 172.936 124.618,172.968 124.861,173.280 125.120 C 173.924 125.655,173.580 120.277,172.867 118.664 C 171.030 114.508,169.751 113.979,160.877 113.699 C 156.813 113.570,152.543 113.390,151.388 113.299 C 150.233 113.207,145.439 113.057,140.735 112.965 C 136.032 112.873,131.103 112.754,129.782 112.701 C 128.462 112.647,126.842 112.756,126.182 112.943 M173.859 148.537 C 173.859 150.600,173.907 151.444,173.966 150.413 C 174.024 149.381,174.024 147.693,173.966 146.662 C 173.907 145.630,173.859 146.474,173.859 148.537 " stroke="none" fill="#f3a63c" fill-rule="evenodd"></path><path id="path2" d="M152.438 86.845 C 151.860 87.052,151.235 87.526,151.048 87.897 C 150.860 88.269,150.556 88.723,150.372 88.907 C 150.188 89.092,150.037 89.857,150.036 90.608 C 150.035 91.359,149.832 92.360,149.586 92.833 C 149.339 93.305,149.136 94.048,149.135 94.483 C 149.134 94.918,148.911 95.679,148.638 96.174 C 148.366 96.669,148.043 97.749,147.920 98.575 C 147.609 100.662,146.876 103.443,146.518 103.897 C 146.353 104.105,146.140 105.072,146.044 106.044 C 145.949 107.017,145.728 107.955,145.554 108.130 C 145.379 108.304,145.236 108.656,145.235 108.912 C 145.231 109.859,144.594 111.638,144.320 111.468 C 143.889 111.202,143.980 109.161,144.486 107.727 C 144.734 107.025,144.936 106.063,144.936 105.589 C 144.936 105.114,145.206 104.456,145.536 104.126 C 145.954 103.709,146.137 103.126,146.137 102.212 C 146.137 101.490,146.339 100.414,146.587 99.821 C 146.834 99.229,147.038 98.436,147.039 98.059 C 147.040 97.683,147.220 97.030,147.440 96.609 C 147.659 96.189,147.929 95.189,148.038 94.389 C 148.148 93.589,148.356 92.785,148.500 92.603 C 148.644 92.422,148.857 91.598,148.973 90.773 C 149.089 89.947,149.382 88.965,149.623 88.589 C 149.865 88.213,149.981 87.774,149.882 87.613 C 149.601 87.159,146.384 87.275,145.427 87.774 C 144.954 88.020,144.144 88.223,143.627 88.224 C 143.109 88.225,142.323 88.415,141.881 88.646 C 141.438 88.877,140.628 89.155,140.080 89.263 C 139.151 89.448,137.574 90.073,136.534 90.669 C 136.287 90.810,135.881 91.002,135.634 91.094 C 134.932 91.355,132.500 92.556,132.333 92.724 C 132.251 92.807,131.575 93.280,130.833 93.774 C 128.917 95.050,128.948 95.024,126.237 97.687 C 123.697 100.183,121.854 102.635,120.665 105.100 C 120.287 105.883,119.870 106.590,119.738 106.672 C 119.606 106.753,119.405 107.314,119.292 107.918 C 119.179 108.521,118.909 109.299,118.693 109.646 C 118.477 109.993,118.230 110.846,118.145 111.540 L 117.990 112.803 119.535 113.239 C 122.261 114.008,123.589 114.124,124.316 113.656 C 125.972 112.588,127.189 112.531,138.967 112.963 C 142.962 113.110,143.058 113.099,143.373 112.446 C 143.628 111.918,143.700 111.887,143.716 112.297 C 143.747 113.097,143.039 113.042,160.240 113.590 C 169.441 113.884,169.829 114.018,172.521 117.822 C 173.396 119.060,173.408 119.065,175.747 119.243 C 177.038 119.341,179.310 119.540,180.795 119.684 C 182.281 119.827,183.582 119.898,183.688 119.840 C 183.794 119.782,183.968 117.067,184.076 113.806 C 184.184 110.545,184.395 106.999,184.545 105.926 C 184.695 104.854,184.858 100.465,184.907 96.174 L 184.996 88.372 181.995 87.998 C 180.345 87.792,175.269 87.494,170.716 87.335 C 166.162 87.176,161.841 86.909,161.113 86.741 C 159.285 86.320,153.714 86.386,152.438 86.845 M186.572 88.410 C 186.096 88.552,186.047 89.096,186.047 94.235 C 186.047 97.354,185.883 102.306,185.683 105.241 C 185.483 108.176,185.314 112.666,185.308 115.219 L 185.296 119.860 187.997 120.224 C 189.482 120.424,191.913 120.670,193.398 120.770 C 194.884 120.870,197.922 121.148,200.150 121.388 C 202.378 121.627,206.159 121.955,208.552 122.117 C 213.193 122.432,221.275 123.115,225.956 123.588 C 230.519 124.049,230.856 123.989,231.186 122.656 C 231.339 122.037,231.627 121.530,231.828 121.530 C 232.095 121.530,232.153 120.876,232.045 119.055 C 231.964 117.693,232.056 115.634,232.250 114.479 C 232.444 113.323,232.710 111.095,232.841 109.527 C 233.113 106.263,233.419 104.726,233.796 104.726 C 234.149 104.726,234.098 110.494,233.729 112.378 C 233.567 113.203,233.319 115.314,233.177 117.069 C 233.031 118.885,232.707 120.707,232.428 121.297 C 231.945 122.314,232.157 123.922,232.776 123.936 C 232.904 123.939,234.291 124.084,235.859 124.258 C 239.158 124.624,248.343 125.333,255.064 125.739 C 257.622 125.893,261.470 126.183,263.616 126.382 C 265.761 126.582,269.137 126.753,271.118 126.763 L 274.719 126.782 274.686 125.281 C 274.667 124.456,274.502 123.241,274.318 122.581 C 274.133 121.920,273.980 120.631,273.976 119.715 C 273.972 118.799,273.838 117.919,273.679 117.760 C 273.520 117.601,273.247 116.210,273.073 114.668 C 272.898 113.126,272.616 111.605,272.447 111.288 C 272.277 110.971,272.132 109.506,272.125 108.032 C 272.116 106.168,271.990 105.252,271.709 105.019 C 271.487 104.835,271.221 103.917,271.118 102.980 C 270.817 100.253,270.701 99.539,270.375 98.427 C 269.981 97.083,269.971 92.723,270.362 92.723 C 270.782 92.723,270.788 92.755,271.959 101.575 C 272.157 103.061,272.427 104.445,272.561 104.651 C 272.694 104.857,272.877 106.005,272.967 107.201 C 273.057 108.398,273.319 110.043,273.549 110.857 C 273.780 111.671,273.968 113.262,273.968 114.394 C 273.968 115.758,274.127 116.692,274.440 117.170 C 274.714 117.588,274.983 118.873,275.081 120.235 C 275.173 121.525,275.353 122.716,275.480 122.881 C 275.607 123.046,275.805 123.936,275.919 124.860 C 276.259 127.611,275.414 127.402,289.122 128.121 C 300.150 128.700,309.238 129.270,310.278 129.447 C 310.855 129.545,315.630 129.767,320.888 129.939 C 331.308 130.279,331.468 130.260,331.128 128.709 C 331.028 128.253,330.938 127.307,330.928 126.606 C 330.919 125.906,330.724 124.886,330.497 124.341 C 330.024 123.210,329.930 119.130,330.377 119.130 C 330.713 119.130,330.877 119.799,331.103 122.087 C 331.191 122.971,331.390 123.849,331.546 124.038 C 331.702 124.227,331.926 125.487,332.044 126.839 C 332.380 130.704,332.070 130.567,341.098 130.835 C 345.190 130.957,348.605 130.995,348.687 130.919 C 348.770 130.844,348.808 129.274,348.772 127.432 C 348.711 124.254,348.405 122.640,347.313 119.730 C 347.096 119.152,346.831 118.232,346.724 117.684 C 346.618 117.137,346.341 116.327,346.110 115.884 C 345.879 115.441,345.689 114.848,345.688 114.567 C 345.687 114.285,345.281 113.368,344.786 112.528 C 344.291 111.688,343.886 110.893,343.886 110.761 C 343.886 110.629,343.616 110.276,343.286 109.977 C 342.956 109.679,342.686 109.268,342.686 109.065 C 342.686 108.596,336.452 102.326,335.986 102.326 C 335.878 102.326,335.170 101.853,334.413 101.275 C 333.656 100.698,332.860 100.225,332.642 100.225 C 332.425 100.225,332.170 100.023,332.075 99.775 C 331.980 99.527,331.635 99.325,331.310 99.325 C 330.984 99.325,330.637 99.194,330.538 99.033 C 329.911 98.019,326.241 97.114,326.771 98.105 C 326.942 98.424,327.082 99.353,327.082 100.169 C 327.082 100.985,327.284 102.137,327.532 102.729 C 327.780 103.323,327.982 104.709,327.982 105.818 C 327.982 107.235,328.123 107.985,328.459 108.356 C 328.742 108.670,328.995 109.651,329.083 110.781 C 329.165 111.824,329.423 113.187,329.657 113.810 C 330.127 115.059,330.238 118.698,329.814 118.960 C 329.435 119.194,329.191 118.416,328.981 116.304 C 328.881 115.300,328.669 114.312,328.508 114.108 C 328.348 113.904,328.143 112.557,328.053 111.114 C 327.953 109.517,327.731 108.333,327.485 108.088 C 327.263 107.866,327.082 107.249,327.082 106.718 C 327.082 106.187,326.891 105.015,326.657 104.114 C 326.423 103.213,326.136 101.362,326.018 100.000 C 325.900 98.638,325.695 97.524,325.563 97.524 C 325.430 97.524,325.243 97.288,325.146 96.999 C 324.962 96.450,323.367 95.609,321.830 95.251 C 321.335 95.135,320.788 94.931,320.615 94.795 C 320.442 94.660,319.699 94.461,318.965 94.351 C 318.230 94.242,317.330 93.966,316.965 93.738 C 316.599 93.510,315.809 93.323,315.210 93.323 C 314.610 93.323,313.694 93.133,313.174 92.900 C 312.654 92.668,311.148 92.331,309.827 92.153 C 308.507 91.975,306.752 91.701,305.926 91.544 C 305.101 91.387,303.625 91.251,302.645 91.241 C 301.665 91.231,300.045 91.018,299.044 90.768 C 297.527 90.389,294.979 90.327,283.721 90.393 L 270.218 90.473 270.207 91.373 C 270.192 92.598,269.426 92.546,269.103 91.298 L 268.850 90.323 257.981 90.322 C 252.003 90.321,244.816 90.244,242.011 90.150 C 239.205 90.057,236.740 90.099,236.533 90.245 C 236.165 90.504,235.953 92.075,235.174 100.351 C 234.933 102.911,234.681 104.271,234.434 104.352 C 233.931 104.518,233.920 98.831,234.418 96.590 C 234.616 95.701,234.785 93.893,234.793 92.573 L 234.809 90.173 229.557 89.836 C 226.669 89.650,219.512 89.406,213.653 89.293 C 207.794 89.180,202.056 88.971,200.900 88.829 C 198.350 88.515,187.305 88.192,186.572 88.410 M130.099 158.273 C 130.375 158.695,130.689 159.040,130.795 159.040 C 130.902 159.040,131.325 159.344,131.736 159.715 C 132.147 160.086,133.091 160.795,133.833 161.289 C 134.576 161.784,135.251 162.260,135.334 162.346 C 135.416 162.432,135.821 162.670,136.234 162.875 C 136.647 163.080,137.389 163.515,137.884 163.843 C 138.380 164.171,139.156 164.588,139.610 164.770 C 140.064 164.951,140.435 165.222,140.435 165.371 C 140.435 165.520,140.606 165.641,140.815 165.641 C 141.023 165.641,141.665 165.891,142.240 166.196 C 142.815 166.500,143.657 166.840,144.111 166.951 C 144.565 167.062,144.936 167.286,144.936 167.448 C 144.936 167.609,145.219 167.742,145.565 167.742 C 145.911 167.742,146.552 167.928,146.990 168.155 C 148.381 168.877,151.077 169.842,151.702 169.842 C 152.033 169.842,152.571 170.025,152.896 170.248 C 153.222 170.471,154.141 170.740,154.939 170.846 C 155.736 170.951,156.546 171.140,156.739 171.265 C 156.932 171.390,157.899 171.641,158.890 171.821 C 159.880 172.002,161.331 172.334,162.114 172.559 C 164.084 173.123,164.086 173.119,164.187 166.870 C 164.248 163.054,164.398 161.112,164.670 160.588 C 165.694 158.613,163.836 158.396,142.536 158.000 C 137.337 157.904,132.299 157.753,131.340 157.665 L 129.596 157.506 130.099 158.273 M166.192 159.090 C 165.590 159.572,165.303 162.388,165.237 168.467 L 165.191 172.643 166.092 173.171 C 166.587 173.462,167.532 173.713,168.192 173.729 C 168.852 173.745,169.932 173.899,170.593 174.071 C 171.253 174.244,173.076 174.567,174.644 174.790 C 176.212 175.013,177.875 175.342,178.339 175.520 C 178.804 175.698,180.087 175.850,181.190 175.857 C 182.293 175.864,183.736 176.065,184.396 176.303 C 185.056 176.541,186.407 176.745,187.397 176.758 C 188.387 176.770,189.872 176.916,190.698 177.082 C 191.523 177.247,193.751 177.510,195.649 177.664 C 197.547 177.819,200.305 178.147,201.778 178.395 C 203.252 178.642,205.952 178.855,207.780 178.867 C 209.607 178.879,211.845 179.024,212.753 179.189 C 213.661 179.354,214.944 179.513,215.604 179.542 L 216.804 179.595 216.804 171.643 C 216.804 160.694,217.008 161.145,212.057 161.130 C 210.212 161.124,207.352 160.993,205.701 160.838 C 204.051 160.684,198.128 160.417,192.539 160.245 C 186.950 160.073,182.254 159.857,182.104 159.764 C 181.954 159.671,179.100 159.475,175.762 159.328 C 172.424 159.180,169.017 158.976,168.192 158.875 C 167.151 158.746,166.539 158.812,166.192 159.090 M218.006 162.036 C 217.806 162.667,217.888 176.285,218.105 178.568 L 218.211 179.672 227.952 179.894 C 241.751 180.207,263.053 179.815,263.632 179.236 C 264.231 178.637,264.215 175.606,263.610 174.937 C 263.319 174.615,263.087 173.523,262.969 171.913 C 262.867 170.527,262.675 169.254,262.543 169.084 C 262.411 168.914,262.209 167.746,262.095 166.488 C 261.799 163.214,262.239 163.438,255.605 163.189 C 252.419 163.069,249.340 162.893,248.762 162.798 C 248.185 162.703,242.108 162.417,235.259 162.163 C 228.410 161.909,221.773 161.628,220.510 161.539 C 218.342 161.387,218.203 161.414,218.006 162.036 M263.304 163.503 C 262.987 163.820,263.208 167.684,263.607 168.792 C 263.845 169.452,264.046 170.964,264.053 172.150 C 264.060 173.337,264.189 174.384,264.339 174.477 C 264.489 174.570,264.781 175.590,264.987 176.745 L 265.362 178.845 269.290 178.827 C 271.451 178.817,273.893 178.680,274.719 178.523 C 275.544 178.366,278.110 178.041,280.420 177.802 C 282.731 177.562,285.229 177.232,285.971 177.068 C 286.714 176.904,288.139 176.764,289.137 176.757 C 290.136 176.750,291.097 176.600,291.272 176.425 C 291.448 176.249,292.792 175.980,294.258 175.828 C 295.724 175.676,297.663 175.347,298.565 175.098 C 299.467 174.848,300.548 174.641,300.966 174.637 C 302.887 174.620,303.175 173.923,303.012 169.688 C 302.896 166.663,302.764 165.775,302.392 165.503 C 301.729 165.018,293.201 164.496,279.820 164.120 C 273.548 163.944,267.298 163.702,265.930 163.582 C 264.562 163.462,263.380 163.426,263.304 163.503 M303.976 169.496 L 303.976 173.743 304.801 173.734 C 305.255 173.729,305.889 173.526,306.209 173.284 C 306.529 173.041,307.067 172.843,307.403 172.843 C 307.963 172.843,309.856 172.184,312.273 171.148 C 312.793 170.925,313.356 170.743,313.524 170.743 C 313.841 170.743,314.083 170.632,317.703 168.826 C 318.899 168.230,320.066 167.742,320.297 167.742 C 320.527 167.742,320.794 167.539,320.889 167.292 C 320.984 167.044,321.279 166.842,321.546 166.842 C 321.812 166.842,321.975 166.673,321.907 166.467 C 321.726 165.920,319.416 165.702,311.253 165.462 L 303.976 165.249 303.976 169.496 " stroke="none" fill="#f2ede3" fill-rule="evenodd"></path><path id="path3" d="M152.138 86.319 C 151.890 86.402,151.485 86.544,151.238 86.636 C 150.990 86.728,149.878 86.845,148.766 86.895 C 146.204 87.011,139.663 88.631,137.489 89.688 C 137.212 89.823,136.315 90.257,135.498 90.653 C 128.095 94.238,123.051 99.157,119.835 105.926 C 119.247 107.164,118.647 108.409,118.502 108.692 C 118.050 109.571,117.556 111.722,117.517 112.978 L 117.479 114.179 119.427 114.329 C 121.649 114.500,122.079 115.056,120.932 116.277 C 120.026 117.241,119.745 118.737,119.737 122.638 C 119.727 127.566,120.244 127.074,120.375 122.032 C 120.482 117.864,120.510 117.709,121.308 116.760 C 121.760 116.223,122.131 115.598,122.131 115.373 C 122.131 115.147,122.417 114.762,122.768 114.516 C 123.387 114.083,123.372 114.064,122.243 113.868 C 121.603 113.757,120.385 113.472,119.535 113.235 L 117.990 112.803 118.145 111.540 C 118.230 110.846,118.477 109.993,118.693 109.646 C 118.909 109.299,119.179 108.521,119.292 107.918 C 119.405 107.314,119.606 106.753,119.738 106.672 C 119.870 106.590,120.287 105.883,120.665 105.100 C 121.854 102.635,123.697 100.183,126.237 97.687 C 128.948 95.024,128.917 95.050,130.833 93.774 C 131.575 93.280,132.251 92.807,132.333 92.724 C 132.416 92.641,133.158 92.249,133.983 91.854 C 134.809 91.458,135.686 91.018,135.934 90.877 C 136.182 90.735,136.587 90.544,136.834 90.452 C 137.082 90.360,137.689 90.099,138.185 89.873 C 138.680 89.646,139.533 89.372,140.080 89.263 C 140.628 89.155,141.438 88.877,141.881 88.646 C 142.323 88.415,143.109 88.225,143.627 88.224 C 144.144 88.223,144.954 88.020,145.427 87.774 C 146.384 87.275,149.601 87.159,149.882 87.613 C 149.981 87.774,149.865 88.213,149.623 88.589 C 149.382 88.965,149.089 89.947,148.973 90.773 C 148.857 91.598,148.644 92.422,148.500 92.603 C 148.356 92.785,148.148 93.589,148.038 94.389 C 147.929 95.189,147.659 96.189,147.440 96.609 C 147.220 97.030,147.040 97.683,147.039 98.059 C 147.038 98.436,146.834 99.229,146.587 99.821 C 146.339 100.414,146.137 101.490,146.137 102.212 C 146.137 103.126,145.954 103.709,145.536 104.126 C 145.206 104.456,144.936 105.114,144.936 105.589 C 144.936 106.063,144.734 107.025,144.486 107.727 C 143.980 109.161,143.889 111.202,144.320 111.468 C 144.594 111.638,145.231 109.859,145.235 108.912 C 145.236 108.656,145.379 108.304,145.554 108.130 C 145.728 107.955,145.949 107.017,146.044 106.044 C 146.140 105.072,146.353 104.105,146.518 103.897 C 146.876 103.443,147.609 100.662,147.920 98.575 C 148.043 97.749,148.366 96.669,148.638 96.174 C 148.911 95.679,149.134 94.918,149.135 94.483 C 149.136 94.048,149.339 93.305,149.586 92.833 C 149.832 92.360,150.035 91.359,150.036 90.608 C 150.037 89.857,150.188 89.092,150.372 88.907 C 150.556 88.723,150.860 88.269,151.048 87.897 C 151.718 86.567,157.485 85.905,161.113 86.741 C 161.841 86.909,166.162 87.176,170.716 87.335 C 175.269 87.494,180.345 87.792,181.995 87.998 L 184.996 88.372 184.907 96.174 C 184.858 100.465,184.695 104.854,184.545 105.926 C 184.395 106.999,184.184 110.545,184.076 113.806 C 183.968 117.067,183.794 119.782,183.688 119.840 C 183.582 119.898,182.281 119.828,180.795 119.685 C 179.310 119.542,177.082 119.344,175.844 119.245 C 174.606 119.146,173.420 118.924,173.209 118.753 C 172.901 118.503,172.886 118.603,173.134 119.255 C 173.304 119.703,173.443 120.668,173.443 121.400 C 173.443 122.132,173.578 122.731,173.743 122.731 C 173.908 122.731,174.044 122.178,174.044 121.503 L 174.044 120.275 179.220 120.356 C 182.722 120.411,184.639 120.563,185.146 120.826 C 185.559 121.039,187.922 121.355,190.398 121.527 C 192.873 121.698,195.911 121.964,197.149 122.116 C 198.387 122.269,200.843 122.402,202.606 122.412 C 204.370 122.422,206.163 122.564,206.592 122.727 C 207.021 122.890,209.629 123.156,212.388 123.318 C 215.147 123.480,217.867 123.749,218.433 123.916 C 218.999 124.083,222.240 124.308,225.635 124.416 C 229.030 124.524,232.044 124.734,232.332 124.882 C 232.619 125.030,234.645 125.226,236.833 125.318 C 239.020 125.410,241.872 125.675,243.169 125.908 C 244.534 126.153,247.490 126.332,250.184 126.332 C 252.850 126.332,256.009 126.521,257.577 126.774 C 259.944 127.157,263.991 127.477,273.668 128.047 C 274.906 128.120,278.282 128.270,281.170 128.381 C 284.059 128.492,286.585 128.688,286.785 128.818 C 286.985 128.947,290.293 129.179,294.137 129.333 C 297.980 129.486,301.828 129.747,302.687 129.912 C 303.546 130.077,307.529 130.292,311.539 130.390 C 315.549 130.489,320.045 130.704,321.530 130.869 C 323.016 131.034,327.052 131.229,330.500 131.302 C 336.452 131.429,347.881 132.170,348.349 132.460 C 348.930 132.818,349.368 129.767,349.181 126.672 C 348.894 121.909,346.260 113.758,343.855 110.188 C 343.377 109.478,342.986 108.787,342.986 108.651 C 342.986 106.605,332.329 98.888,326.332 96.591 C 325.341 96.211,324.390 95.800,324.217 95.676 C 324.044 95.552,322.761 95.092,321.366 94.653 C 319.971 94.214,318.251 93.668,317.544 93.439 C 316.837 93.210,316.038 93.023,315.770 93.023 C 315.501 93.023,314.595 92.831,313.755 92.596 C 311.981 92.100,307.627 91.341,303.976 90.892 C 302.573 90.720,300.480 90.458,299.325 90.312 C 298.170 90.165,290.608 90.034,282.521 90.021 C 274.434 90.009,260.795 89.887,252.213 89.752 C 242.664 89.602,236.398 89.614,236.065 89.785 C 235.708 89.968,235.379 89.947,235.110 89.724 C 234.830 89.491,230.491 89.294,221.401 89.101 C 214.087 88.946,206.428 88.685,204.383 88.520 C 202.337 88.356,198.961 88.247,196.881 88.278 L 193.098 88.333 196.399 88.547 C 198.215 88.665,204.561 88.912,210.503 89.098 C 216.444 89.283,224.344 89.601,228.057 89.804 L 234.809 90.173 234.793 92.573 C 234.785 93.893,234.616 95.701,234.418 96.590 C 233.920 98.831,233.931 104.518,234.434 104.352 C 234.681 104.271,234.933 102.911,235.174 100.351 C 235.953 92.075,236.165 90.504,236.533 90.245 C 236.740 90.099,239.205 90.057,242.011 90.150 C 244.816 90.244,252.003 90.321,257.981 90.322 L 268.850 90.323 269.103 91.298 C 269.426 92.546,270.192 92.598,270.207 91.373 L 270.218 90.473 283.721 90.393 C 294.979 90.327,297.527 90.389,299.044 90.768 C 300.045 91.018,301.665 91.231,302.645 91.241 C 303.625 91.251,305.101 91.387,305.926 91.544 C 306.752 91.701,308.507 91.975,309.827 92.153 C 311.148 92.331,312.654 92.668,313.174 92.900 C 313.694 93.133,314.610 93.323,315.210 93.323 C 315.809 93.323,316.599 93.510,316.965 93.738 C 317.330 93.966,318.230 94.242,318.965 94.351 C 319.699 94.461,320.442 94.660,320.615 94.795 C 320.788 94.931,321.335 95.135,321.830 95.251 C 323.367 95.609,324.962 96.450,325.146 96.999 C 325.243 97.288,325.430 97.524,325.563 97.524 C 325.695 97.524,325.900 98.638,326.018 100.000 C 326.136 101.362,326.423 103.213,326.657 104.114 C 326.891 105.015,327.082 106.187,327.082 106.718 C 327.082 107.249,327.263 107.866,327.485 108.088 C 327.731 108.333,327.953 109.517,328.053 111.114 C 328.143 112.557,328.348 113.904,328.508 114.108 C 328.669 114.312,328.881 115.300,328.981 116.304 C 329.191 118.416,329.435 119.194,329.814 118.960 C 330.238 118.698,330.127 115.059,329.657 113.810 C 329.423 113.187,329.165 111.824,329.083 110.781 C 328.995 109.651,328.742 108.670,328.459 108.356 C 328.123 107.985,327.982 107.235,327.982 105.818 C 327.982 104.709,327.780 103.323,327.532 102.729 C 327.284 102.137,327.082 100.985,327.082 100.169 C 327.082 99.353,326.942 98.424,326.771 98.105 C 326.241 97.114,329.911 98.019,330.538 99.033 C 330.637 99.194,330.984 99.325,331.310 99.325 C 331.635 99.325,331.980 99.527,332.075 99.775 C 332.170 100.023,332.425 100.225,332.642 100.225 C 332.860 100.225,333.656 100.698,334.413 101.275 C 335.170 101.853,335.878 102.326,335.986 102.326 C 336.452 102.326,342.686 108.596,342.686 109.065 C 342.686 109.268,342.956 109.679,343.286 109.977 C 343.616 110.276,343.886 110.629,343.886 110.761 C 343.886 110.893,344.291 111.688,344.786 112.528 C 345.281 113.368,345.687 114.285,345.688 114.567 C 345.689 114.848,345.879 115.441,346.110 115.884 C 346.341 116.327,346.618 117.137,346.724 117.684 C 346.831 118.232,347.096 119.152,347.313 119.730 C 348.405 122.640,348.711 124.254,348.772 127.432 C 348.808 129.274,348.770 130.844,348.687 130.919 C 348.605 130.995,345.190 130.957,341.098 130.835 C 332.070 130.567,332.380 130.704,332.044 126.839 C 331.926 125.487,331.702 124.227,331.546 124.038 C 331.390 123.849,331.191 122.971,331.103 122.087 C 330.877 119.799,330.713 119.130,330.377 119.130 C 329.930 119.130,330.024 123.210,330.497 124.341 C 330.724 124.886,330.919 125.906,330.928 126.606 C 330.938 127.307,331.028 128.253,331.128 128.709 C 331.468 130.260,331.308 130.279,320.888 129.939 C 315.630 129.767,310.855 129.545,310.278 129.447 C 309.238 129.270,300.150 128.700,289.122 128.121 C 275.414 127.402,276.259 127.611,275.919 124.860 C 275.805 123.936,275.607 123.046,275.480 122.881 C 275.353 122.716,275.173 121.525,275.081 120.235 C 274.983 118.873,274.714 117.588,274.440 117.170 C 274.127 116.692,273.968 115.758,273.968 114.394 C 273.968 113.262,273.780 111.671,273.549 110.857 C 273.319 110.043,273.057 108.398,272.967 107.201 C 272.877 106.005,272.694 104.857,272.561 104.651 C 272.427 104.445,272.157 103.061,271.959 101.575 C 270.788 92.755,270.782 92.723,270.362 92.723 C 269.971 92.723,269.981 97.083,270.375 98.427 C 270.701 99.539,270.817 100.253,271.118 102.980 C 271.221 103.917,271.487 104.835,271.709 105.019 C 271.990 105.252,272.116 106.168,272.125 108.032 C 272.132 109.506,272.277 110.971,272.447 111.288 C 272.616 111.605,272.898 113.126,273.073 114.668 C 273.247 116.210,273.520 117.601,273.679 117.760 C 273.838 117.919,273.972 118.799,273.976 119.715 C 273.980 120.631,274.133 121.920,274.318 122.581 C 274.502 123.241,274.667 124.456,274.686 125.281 L 274.719 126.782 271.118 126.763 C 269.137 126.753,265.761 126.582,263.616 126.382 C 261.470 126.183,257.622 125.893,255.064 125.739 C 248.343 125.333,239.158 124.624,235.859 124.258 C 234.291 124.084,232.904 123.939,232.776 123.936 C 232.157 123.922,231.945 122.314,232.428 121.297 C 232.707 120.707,233.031 118.885,233.177 117.069 C 233.319 115.314,233.567 113.203,233.729 112.378 C 234.098 110.494,234.149 104.726,233.796 104.726 C 233.419 104.726,233.113 106.263,232.841 109.527 C 232.710 111.095,232.444 113.323,232.250 114.479 C 232.056 115.634,231.964 117.693,232.045 119.055 C 232.153 120.876,232.095 121.530,231.828 121.530 C 231.627 121.530,231.339 122.037,231.186 122.656 C 230.856 123.989,230.519 124.049,225.956 123.588 C 221.275 123.115,213.193 122.432,208.552 122.117 C 206.159 121.955,202.378 121.627,200.150 121.388 C 197.922 121.148,194.884 120.870,193.398 120.770 C 191.913 120.670,189.482 120.424,187.997 120.224 L 185.296 119.860 185.308 115.219 C 185.314 112.666,185.483 108.176,185.683 105.241 C 185.883 102.306,186.047 97.344,186.047 94.213 C 186.047 91.083,186.080 88.504,186.122 88.483 C 186.163 88.461,187.749 88.346,189.647 88.227 L 193.098 88.012 189.197 87.969 C 187.052 87.946,184.689 87.800,183.946 87.646 C 183.203 87.491,179.827 87.278,176.444 87.173 C 173.061 87.067,168.140 86.787,165.510 86.551 C 160.931 86.140,153.084 86.004,152.138 86.319 M119.948 126.988 C 119.869 127.205,119.873 130.767,119.956 134.905 C 120.062 140.125,120.006 142.620,119.774 143.053 C 119.513 143.541,119.533 143.711,119.865 143.839 C 120.099 143.928,120.354 144.448,120.433 144.994 C 120.512 145.540,120.536 141.692,120.487 136.443 C 120.403 127.540,120.315 125.987,119.948 126.988 M172.243 155.367 C 172.243 156.466,169.462 158.407,167.797 158.470 C 165.309 158.565,169.817 159.061,175.463 159.313 C 178.967 159.469,181.956 159.673,182.106 159.765 C 182.255 159.857,186.950 160.073,192.539 160.245 C 198.128 160.417,204.051 160.684,205.701 160.838 C 207.352 160.993,210.212 161.124,212.057 161.130 C 217.008 161.145,216.804 160.694,216.804 171.643 L 216.804 179.595 215.604 179.542 C 214.944 179.513,213.661 179.354,212.753 179.189 C 211.845 179.024,209.607 178.879,207.780 178.867 C 205.952 178.855,203.252 178.642,201.778 178.395 C 200.305 178.147,197.547 177.819,195.649 177.664 C 193.751 177.510,191.523 177.247,190.698 177.082 C 189.872 176.916,188.387 176.770,187.397 176.758 C 186.407 176.745,185.056 176.541,184.396 176.303 C 183.736 176.065,182.251 175.883,181.095 175.899 C 179.015 175.928,179.009 175.931,180.495 176.142 C 181.320 176.259,182.941 176.504,184.096 176.686 C 189.305 177.509,196.247 178.308,204.051 178.984 C 206.774 179.219,210.555 179.552,212.453 179.723 C 214.351 179.895,216.377 180.011,216.954 179.981 C 217.532 179.952,222.663 180.109,228.357 180.331 C 238.194 180.715,259.889 180.415,263.466 179.847 C 264.044 179.755,265.124 179.645,265.866 179.602 C 269.990 179.364,276.455 178.808,278.020 178.558 C 279.010 178.399,280.630 178.194,281.620 178.103 C 283.661 177.915,289.199 177.150,291.673 176.715 C 292.581 176.556,294.539 176.235,296.024 176.004 C 299.745 175.423,302.829 174.711,303.192 174.348 C 303.359 174.180,304.043 174.043,304.711 174.042 C 305.380 174.041,306.289 173.851,306.731 173.620 C 307.174 173.389,307.973 173.104,308.505 172.987 C 311.645 172.297,321.580 167.726,323.104 166.270 C 324.553 164.885,324.053 164.741,317.794 164.740 C 314.733 164.740,310.423 164.602,308.216 164.434 C 305.355 164.215,304.091 164.221,303.811 164.453 C 303.526 164.690,303.189 164.663,302.572 164.351 C 301.916 164.020,299.432 163.877,291.523 163.717 C 285.911 163.603,280.443 163.381,279.370 163.223 C 278.297 163.065,273.571 162.864,268.867 162.777 C 264.164 162.690,259.842 162.480,259.265 162.310 C 258.687 162.140,253.151 161.879,246.962 161.730 C 240.773 161.581,234.224 161.326,232.408 161.165 C 230.593 161.004,226.002 160.806,222.206 160.725 C 218.410 160.644,214.359 160.422,213.203 160.230 C 212.048 160.038,206.647 159.764,201.200 159.621 C 195.754 159.477,190.083 159.232,188.597 159.076 C 187.112 158.920,183.925 158.780,181.516 158.766 C 172.585 158.713,171.277 158.395,172.080 156.473 C 172.339 155.854,172.482 155.277,172.397 155.193 C 172.312 155.108,172.243 155.187,172.243 155.367 M129.632 158.184 C 129.632 158.422,130.328 159.147,131.178 159.795 C 132.029 160.444,132.873 161.116,133.054 161.290 C 134.582 162.755,142.153 166.776,146.587 168.479 C 147.742 168.923,148.957 169.397,149.287 169.534 C 150.047 169.848,153.245 170.819,155.589 171.448 C 159.763 172.567,161.384 172.901,163.008 172.977 C 163.953 173.021,164.910 173.210,165.135 173.397 C 165.360 173.583,166.610 173.884,167.913 174.065 C 169.217 174.247,170.369 174.448,170.474 174.513 C 170.713 174.660,176.170 175.566,177.794 175.727 C 180.151 175.962,177.663 175.223,174.644 174.792 C 173.076 174.568,171.253 174.244,170.593 174.071 C 169.932 173.899,168.852 173.745,168.192 173.729 C 167.532 173.713,166.587 173.462,166.092 173.171 L 165.191 172.643 165.237 168.467 C 165.302 162.455,165.591 159.569,166.175 159.115 C 166.567 158.809,166.576 158.737,166.224 158.723 C 165.986 158.715,164.981 158.669,163.991 158.623 C 163.001 158.577,162.615 158.592,163.134 158.656 C 164.521 158.827,165.162 159.639,164.664 160.598 C 164.399 161.109,164.248 163.095,164.187 166.870 C 164.086 173.119,164.084 173.123,162.114 172.559 C 161.331 172.334,159.880 172.002,158.890 171.821 C 157.899 171.641,156.932 171.390,156.739 171.265 C 156.546 171.140,155.736 170.951,154.939 170.846 C 154.141 170.740,153.222 170.471,152.896 170.248 C 152.571 170.025,152.033 169.842,151.702 169.842 C 151.077 169.842,148.381 168.877,146.990 168.155 C 146.552 167.928,145.911 167.742,145.565 167.742 C 145.219 167.742,144.936 167.609,144.936 167.448 C 144.936 167.286,144.565 167.062,144.111 166.951 C 143.657 166.840,142.815 166.500,142.240 166.196 C 141.665 165.891,141.023 165.641,140.815 165.641 C 140.606 165.641,140.435 165.520,140.435 165.371 C 140.435 165.222,140.064 164.951,139.610 164.770 C 139.156 164.588,138.380 164.171,137.884 163.843 C 137.389 163.515,136.647 163.080,136.234 162.875 C 135.821 162.670,135.416 162.432,135.334 162.346 C 135.251 162.260,134.579 161.784,133.839 161.289 C 132.212 160.201,131.245 159.425,130.325 158.471 C 129.855 157.983,129.632 157.891,129.632 158.184 M235.259 162.163 C 242.108 162.417,248.185 162.703,248.762 162.798 C 249.340 162.893,252.419 163.069,255.605 163.189 C 262.239 163.438,261.799 163.214,262.095 166.488 C 262.209 167.746,262.411 168.914,262.543 169.084 C 262.675 169.254,262.867 170.527,262.969 171.913 C 263.087 173.523,263.319 174.615,263.610 174.937 C 264.215 175.606,264.231 178.637,263.632 179.236 C 263.053 179.815,241.751 180.207,227.952 179.894 L 218.211 179.672 218.105 178.568 C 217.888 176.285,217.806 162.667,218.006 162.036 C 218.203 161.414,218.342 161.387,220.510 161.539 C 221.773 161.628,228.410 161.909,235.259 162.163 M279.820 164.120 C 293.201 164.496,301.729 165.018,302.392 165.503 C 302.764 165.775,302.896 166.663,303.012 169.688 C 303.175 173.923,302.887 174.620,300.966 174.637 C 300.548 174.641,299.467 174.848,298.565 175.098 C 297.663 175.347,295.724 175.676,294.258 175.828 C 292.792 175.980,291.448 176.249,291.272 176.425 C 291.097 176.600,290.136 176.750,289.137 176.757 C 288.139 176.764,286.714 176.904,285.971 177.068 C 285.229 177.232,282.731 177.562,280.420 177.802 C 278.110 178.041,275.544 178.366,274.719 178.523 C 273.893 178.680,271.451 178.817,269.290 178.827 L 265.362 178.845 264.987 176.745 C 264.781 175.590,264.489 174.570,264.339 174.477 C 264.189 174.384,264.060 173.337,264.053 172.150 C 264.046 170.964,263.845 169.452,263.607 168.792 C 263.208 167.684,262.987 163.820,263.304 163.503 C 263.380 163.426,264.562 163.462,265.930 163.582 C 267.298 163.702,273.548 163.944,279.820 164.120 M320.156 165.884 C 321.619 166.071,322.738 166.842,321.546 166.842 C 321.279 166.842,320.984 167.044,320.889 167.292 C 320.794 167.539,320.527 167.742,320.297 167.742 C 320.066 167.742,318.899 168.230,317.703 168.826 C 314.083 170.632,313.841 170.743,313.524 170.743 C 313.356 170.743,312.793 170.925,312.273 171.148 C 309.856 172.184,307.963 172.843,307.403 172.843 C 307.067 172.843,306.529 173.041,306.209 173.284 C 305.889 173.526,305.255 173.729,304.801 173.734 L 303.976 173.743 303.976 169.496 L 303.976 165.249 311.253 165.462 C 315.255 165.580,319.262 165.770,320.156 165.884 " stroke="none" fill="#99d8d5" fill-rule="evenodd"></path><path id="path4" d="M152.888 83.582 C 152.723 83.644,151.103 83.831,149.287 83.997 C 147.472 84.162,144.906 84.586,143.586 84.939 C 142.266 85.291,140.645 85.714,139.985 85.878 C 137.674 86.452,132.255 89.039,129.503 90.881 C 125.844 93.330,121.981 97.080,120.033 100.075 C 119.388 101.065,118.753 102.014,118.620 102.183 C 118.213 102.703,116.129 106.959,116.129 107.271 C 116.129 107.433,115.872 108.243,115.558 109.071 C 112.502 117.130,112.571 135.868,115.681 142.431 C 115.927 142.951,116.129 143.534,116.129 143.726 C 116.129 143.919,116.742 145.344,117.491 146.894 C 122.579 157.424,132.366 165.957,144.936 170.820 C 149.179 172.462,150.393 172.884,151.388 173.059 C 151.883 173.147,152.429 173.330,152.601 173.466 C 153.034 173.809,159.279 175.244,163.541 175.981 C 164.779 176.195,166.399 176.514,167.142 176.691 C 169.417 177.232,178.600 178.774,181.695 179.134 C 182.851 179.268,184.606 179.519,185.596 179.692 C 188.787 180.248,199.245 181.375,205.551 181.842 C 207.944 182.019,212.333 182.384,215.304 182.654 C 222.096 183.269,256.302 183.360,261.215 182.776 C 262.866 182.579,266.369 182.294,269.001 182.142 C 271.633 181.989,274.739 181.724,275.903 181.553 C 277.067 181.381,279.167 181.114,280.570 180.959 C 285.500 180.414,290.638 179.747,292.123 179.459 C 292.948 179.299,294.974 178.946,296.624 178.674 C 301.622 177.851,305.777 176.820,310.578 175.210 C 313.339 174.284,314.761 173.758,315.308 173.459 C 315.594 173.302,316.909 172.695,318.230 172.109 C 319.550 171.523,320.833 170.908,321.080 170.742 C 321.328 170.577,321.819 170.316,322.172 170.162 C 330.051 166.734,342.057 155.796,346.567 147.937 C 347.088 147.029,347.635 146.084,347.782 145.836 C 351.551 139.513,353.101 128.836,351.245 121.980 C 348.384 111.413,346.529 107.884,340.969 102.428 C 338.758 100.259,333.087 96.404,330.383 95.231 C 330.135 95.123,329.325 94.780,328.582 94.467 C 327.839 94.154,326.873 93.702,326.435 93.461 C 325.997 93.220,325.410 93.023,325.131 93.023 C 324.852 93.023,324.265 92.838,323.827 92.612 C 323.389 92.386,322.288 91.989,321.380 91.730 C 320.473 91.471,318.989 91.035,318.084 90.761 C 317.178 90.488,315.828 90.159,315.083 90.031 C 314.338 89.904,313.121 89.650,312.378 89.467 C 304.287 87.479,300.000 87.273,261.788 87.035 C 242.463 86.915,226.510 86.728,226.337 86.621 C 226.163 86.514,220.707 86.291,214.211 86.126 C 207.715 85.961,200.375 85.694,197.899 85.533 C 195.424 85.373,191.508 85.172,189.197 85.088 C 186.887 85.004,181.485 84.734,177.194 84.488 C 159.374 83.465,153.750 83.256,152.888 83.582 M167.292 86.450 C 168.447 86.615,172.633 86.872,176.594 87.021 C 180.555 87.170,186.294 87.431,189.347 87.602 C 207.787 88.632,231.956 89.242,267.517 89.574 C 298.812 89.866,300.023 89.916,308.027 91.246 C 309.017 91.411,310.705 91.679,311.778 91.842 C 312.851 92.005,313.998 92.263,314.329 92.414 C 314.659 92.565,315.401 92.770,315.979 92.870 C 317.347 93.106,321.083 94.192,321.751 94.547 C 322.038 94.699,322.417 94.824,322.593 94.824 C 322.769 94.824,323.480 95.070,324.173 95.371 C 324.865 95.672,326.039 96.162,326.782 96.461 C 328.573 97.182,330.796 98.232,330.983 98.446 C 331.065 98.541,331.384 98.712,331.692 98.825 C 337.419 100.943,347.187 112.414,347.187 117.021 C 347.187 117.344,347.380 118.052,347.615 118.594 C 350.381 124.955,350.260 132.831,347.282 140.414 C 343.785 149.317,336.016 158.380,326.942 164.141 C 326.552 164.389,325.445 165.131,324.482 165.791 C 322.296 167.290,322.098 167.403,318.980 168.933 C 315.162 170.807,313.561 171.496,310.278 172.680 C 309.700 172.888,308.755 173.230,308.177 173.440 C 307.599 173.650,306.317 173.976,305.326 174.164 C 304.336 174.352,303.231 174.672,302.870 174.875 C 302.510 175.078,301.930 175.244,301.582 175.244 C 301.233 175.244,300.111 175.433,299.086 175.665 C 296.740 176.196,293.822 176.692,290.173 177.181 C 288.605 177.392,286.377 177.712,285.221 177.894 C 266.768 180.794,225.810 181.695,208.361 179.585 C 206.358 179.343,203.927 179.145,202.960 179.146 C 201.992 179.147,199.647 178.948,197.749 178.706 C 195.851 178.463,193.083 178.108,191.598 177.918 C 190.113 177.728,187.547 177.402,185.896 177.194 C 182.961 176.824,181.320 176.581,175.544 175.659 C 172.758 175.214,171.575 175.000,167.292 174.163 C 166.137 173.937,164.314 173.605,163.241 173.424 C 161.376 173.110,159.584 172.711,156.639 171.954 C 153.273 171.089,152.238 170.795,151.538 170.507 C 151.125 170.338,149.875 169.917,148.761 169.572 C 147.646 169.227,146.498 168.813,146.210 168.651 C 145.922 168.490,144.876 168.027,143.886 167.623 C 139.699 165.914,136.189 163.843,131.283 160.185 C 130.276 159.435,125.603 154.789,124.694 153.634 C 123.403 151.995,121.000 148.224,120.647 147.284 C 120.441 146.735,119.802 145.323,119.227 144.145 C 116.405 138.363,115.068 124.426,116.579 116.531 C 116.827 115.237,117.029 113.792,117.029 113.319 C 117.030 108.080,125.732 95.092,130.628 93.023 C 130.823 92.941,131.523 92.526,132.183 92.102 C 132.843 91.678,134.059 91.028,134.884 90.658 C 135.709 90.288,136.789 89.796,137.284 89.564 C 140.648 87.991,147.460 86.509,153.638 86.005 C 155.836 85.826,165.020 86.126,167.292 86.450 " stroke="none" fill="#355269" fill-rule="evenodd"></path><path id="path5" d="M0.000 150.038 L 0.000 300.075 200.000 300.075 L 400.000 300.075 400.000 150.038 L 400.000 0.000 200.000 0.000 L 0.000 0.000 0.000 150.038 M163.241 83.725 C 166.624 83.898,172.903 84.241,177.194 84.488 C 181.485 84.734,186.887 85.004,189.197 85.088 C 191.508 85.172,195.424 85.373,197.899 85.533 C 200.375 85.694,207.715 85.961,214.211 86.126 C 220.707 86.291,226.163 86.514,226.337 86.621 C 226.510 86.728,242.463 86.915,261.788 87.035 C 300.000 87.273,304.287 87.479,312.378 89.467 C 313.121 89.650,314.338 89.904,315.083 90.031 C 315.828 90.159,317.178 90.488,318.084 90.761 C 318.989 91.035,320.473 91.471,321.380 91.730 C 322.288 91.989,323.389 92.386,323.827 92.612 C 324.265 92.838,324.852 93.023,325.131 93.023 C 325.410 93.023,325.997 93.220,326.435 93.461 C 326.873 93.702,327.839 94.154,328.582 94.467 C 329.325 94.780,330.135 95.123,330.383 95.231 C 333.087 96.404,338.758 100.259,340.969 102.428 C 346.529 107.884,348.384 111.413,351.245 121.980 C 353.101 128.836,351.551 139.513,347.782 145.836 C 347.635 146.084,347.088 147.029,346.567 147.937 C 342.057 155.796,330.051 166.734,322.172 170.162 C 321.819 170.316,321.328 170.577,321.080 170.742 C 320.833 170.908,319.550 171.523,318.230 172.109 C 316.909 172.695,315.594 173.302,315.308 173.459 C 314.761 173.758,313.339 174.284,310.578 175.210 C 305.777 176.820,301.622 177.851,296.624 178.674 C 294.974 178.946,292.948 179.299,292.123 179.459 C 290.638 179.747,285.500 180.414,280.570 180.959 C 279.167 181.114,277.067 181.381,275.903 181.553 C 274.739 181.724,271.633 181.989,269.001 182.142 C 266.369 182.294,262.866 182.579,261.215 182.776 C 256.302 183.360,222.096 183.269,215.304 182.654 C 212.333 182.384,207.944 182.019,205.551 181.842 C 199.245 181.375,188.787 180.248,185.596 179.692 C 184.606 179.519,182.851 179.268,181.695 179.134 C 178.600 178.774,169.417 177.232,167.142 176.691 C 166.399 176.514,164.779 176.195,163.541 175.981 C 159.279 175.244,153.034 173.809,152.601 173.466 C 152.429 173.330,151.883 173.147,151.388 173.059 C 150.393 172.884,149.179 172.462,144.936 170.820 C 132.366 165.957,122.579 157.424,117.491 146.894 C 116.742 145.344,116.129 143.919,116.129 143.726 C 116.129 143.534,115.927 142.951,115.681 142.431 C 112.571 135.868,112.502 117.130,115.558 109.071 C 115.872 108.243,116.129 107.433,116.129 107.271 C 116.129 106.959,118.213 102.703,118.620 102.183 C 118.753 102.014,119.388 101.065,120.033 100.075 C 121.981 97.080,125.844 93.330,129.503 90.881 C 132.255 89.039,137.674 86.452,139.985 85.878 C 140.645 85.714,142.266 85.291,143.586 84.939 C 144.906 84.586,147.472 84.162,149.287 83.997 C 151.103 83.831,152.723 83.644,152.888 83.582 C 153.469 83.362,157.151 83.413,163.241 83.725 M156.123 86.042 C 156.912 86.104,158.127 86.104,158.824 86.041 C 159.520 85.978,158.875 85.927,157.389 85.928 C 155.904 85.929,155.334 85.980,156.123 86.042 M149.887 86.395 L 148.687 86.583 149.705 86.803 C 150.265 86.925,150.873 86.903,151.056 86.755 C 151.238 86.607,151.658 86.420,151.988 86.339 C 152.881 86.119,151.393 86.159,149.887 86.395 M162.066 86.232 C 162.134 86.293,163.541 86.418,165.191 86.510 C 167.233 86.623,167.809 86.593,166.992 86.416 C 165.819 86.162,161.817 86.013,162.066 86.232 M169.767 86.941 C 170.469 87.005,171.617 87.005,172.318 86.941 C 173.020 86.878,172.446 86.827,171.043 86.827 C 169.640 86.827,169.066 86.878,169.767 86.941 M143.736 87.472 C 142.363 88.001,142.894 88.004,144.786 87.479 C 145.655 87.238,145.971 87.063,145.536 87.065 C 145.124 87.066,144.314 87.249,143.736 87.472 M180.974 87.313 C 182.888 87.444,184.711 87.669,185.025 87.812 C 185.339 87.955,186.879 88.005,188.447 87.922 L 191.298 87.772 187.697 87.545 C 185.716 87.421,182.611 87.264,180.795 87.197 L 177.494 87.075 180.974 87.313 M194.674 88.144 C 195.705 88.203,197.393 88.203,198.425 88.144 C 199.456 88.086,198.612 88.038,196.549 88.038 C 194.486 88.038,193.642 88.086,194.674 88.144 M204.651 88.539 C 206.054 88.662,208.147 88.755,209.302 88.745 L 211.403 88.728 209.302 88.512 C 208.147 88.394,206.054 88.301,204.651 88.306 L 202.101 88.315 204.651 88.539 M217.345 89.046 C 218.963 89.100,221.528 89.100,223.046 89.046 C 224.564 88.991,223.241 88.947,220.105 88.947 C 216.969 88.948,215.727 88.992,217.345 89.046 M232.545 89.327 C 233.775 89.395,234.951 89.591,235.157 89.763 C 235.367 89.937,235.704 89.965,235.921 89.827 C 236.134 89.691,241.643 89.625,248.162 89.681 C 254.681 89.737,259.947 89.716,259.865 89.634 C 259.782 89.552,253.098 89.421,245.011 89.344 C 236.924 89.266,231.314 89.259,232.545 89.327 M262.623 89.880 C 262.823 90.079,294.426 90.070,294.626 89.871 C 294.707 89.789,287.504 89.722,278.620 89.722 C 269.735 89.722,262.536 89.793,262.623 89.880 M133.833 91.121 C 132.761 91.694,131.680 92.377,131.433 92.639 C 131.162 92.926,131.427 92.851,132.096 92.453 C 132.708 92.088,133.653 91.572,134.196 91.307 C 134.739 91.043,135.450 90.645,135.776 90.424 C 136.857 89.691,135.811 90.066,133.833 91.121 M298.654 90.238 C 299.110 90.307,299.785 90.305,300.154 90.234 C 300.523 90.163,300.150 90.106,299.325 90.108 C 298.500 90.111,298.198 90.169,298.654 90.238 M301.725 90.607 C 302.651 90.859,304.774 91.011,304.551 90.810 C 304.482 90.748,303.616 90.622,302.626 90.530 C 301.442 90.420,301.133 90.447,301.725 90.607 M305.701 91.135 C 306.073 91.206,306.680 91.206,307.052 91.135 C 307.423 91.063,307.119 91.004,306.377 91.004 C 305.634 91.004,305.330 91.063,305.701 91.135 M308.477 91.523 C 309.634 91.893,310.251 91.893,309.677 91.523 C 309.430 91.363,308.890 91.243,308.477 91.257 L 307.727 91.283 308.477 91.523 M310.953 92.030 C 311.242 92.105,311.714 92.105,312.003 92.030 C 312.292 91.954,312.056 91.893,311.478 91.893 C 310.900 91.893,310.664 91.954,310.953 92.030 M313.428 92.423 C 314.254 92.778,314.548 92.778,314.329 92.423 C 314.227 92.258,313.847 92.133,313.486 92.144 C 312.852 92.164,312.850 92.174,313.428 92.423 M127.774 95.275 C 124.365 98.201,119.722 104.118,119.732 105.527 C 119.732 105.664,120.293 104.831,120.977 103.676 C 122.090 101.797,123.102 100.402,124.981 98.157 C 125.311 97.763,126.768 96.446,128.218 95.231 C 129.669 94.017,130.749 93.026,130.619 93.030 C 130.489 93.034,129.209 94.044,127.774 95.275 M317.629 93.482 C 319.184 94.042,319.725 94.028,318.420 93.462 C 317.865 93.221,317.190 93.029,316.920 93.036 C 316.650 93.044,316.969 93.244,317.629 93.482 M323.939 95.510 C 324.265 95.722,325.341 96.205,326.332 96.583 C 327.322 96.960,328.513 97.475,328.978 97.726 C 329.443 97.977,329.877 98.130,329.941 98.066 C 330.101 97.906,328.512 97.125,326.332 96.292 C 325.341 95.914,324.403 95.496,324.246 95.364 C 324.089 95.232,323.823 95.124,323.654 95.124 C 323.485 95.124,323.614 95.298,323.939 95.510 M331.308 98.822 C 331.949 99.321,334.594 100.785,334.459 100.567 C 334.259 100.243,331.742 98.725,331.404 98.725 C 331.283 98.725,331.239 98.768,331.308 98.822 M338.185 103.536 C 339.092 104.424,340.510 105.843,341.335 106.688 C 342.161 107.534,342.633 107.952,342.386 107.617 C 341.698 106.685,339.391 104.357,337.884 103.073 C 336.819 102.164,336.882 102.262,338.185 103.536 M119.121 106.543 C 118.939 106.882,118.835 107.293,118.890 107.456 C 118.944 107.620,119.144 107.342,119.333 106.840 C 119.727 105.795,119.609 105.630,119.121 106.543 M118.254 108.582 C 118.075 108.915,117.930 109.366,117.931 109.583 C 117.932 109.800,118.137 109.586,118.387 109.108 C 118.636 108.629,118.781 108.179,118.709 108.107 C 118.637 108.035,118.432 108.248,118.254 108.582 M342.986 108.892 C 342.986 109.057,343.121 109.275,343.285 109.377 C 343.450 109.479,344.123 110.533,344.782 111.720 C 345.440 112.907,345.980 113.760,345.983 113.615 C 345.985 113.471,345.439 112.360,344.769 111.147 C 343.601 109.030,342.986 108.253,342.986 108.892 M117.387 111.432 C 117.190 111.976,117.029 112.816,117.029 113.300 C 117.029 113.783,116.827 115.237,116.579 116.531 C 115.440 122.481,116.045 133.914,117.861 140.771 C 118.577 143.476,120.330 146.332,120.330 144.794 C 120.330 144.367,120.130 143.940,119.885 143.847 C 119.534 143.712,119.511 143.546,119.774 143.054 C 120.005 142.622,120.057 140.134,119.946 134.911 C 119.854 130.611,119.902 127.171,120.058 126.879 C 120.229 126.560,120.219 126.298,120.031 126.182 C 119.100 125.607,119.844 117.436,120.932 116.277 C 122.079 115.056,121.649 114.500,119.427 114.329 C 117.249 114.161,116.841 113.532,117.647 111.586 C 117.847 111.103,117.950 110.649,117.877 110.576 C 117.804 110.502,117.584 110.888,117.387 111.432 M345.997 114.273 C 345.991 114.490,346.145 114.963,346.339 115.324 C 346.532 115.684,346.789 116.384,346.908 116.879 C 347.105 117.695,347.127 117.709,347.146 117.029 C 347.157 116.617,346.906 115.739,346.587 115.079 C 346.268 114.419,346.002 114.056,345.997 114.273 M347.197 117.970 C 347.192 118.075,347.384 118.615,347.625 119.170 C 347.866 119.726,348.064 119.977,348.065 119.730 C 348.066 119.297,347.219 117.580,347.197 117.970 M173.930 122.179 C 173.817 123.225,173.788 130.293,173.865 137.884 C 174.004 151.605,173.889 154.063,173.081 154.671 C 172.188 155.342,171.556 157.560,172.136 157.984 C 172.796 158.467,175.990 158.733,181.516 158.766 C 183.925 158.780,187.112 158.920,188.597 159.076 C 190.083 159.232,195.754 159.477,201.200 159.621 C 206.647 159.764,212.048 160.038,213.203 160.230 C 214.359 160.422,218.410 160.644,222.206 160.725 C 226.002 160.806,230.593 161.004,232.408 161.165 C 234.224 161.326,240.773 161.581,246.962 161.730 C 253.151 161.879,258.687 162.140,259.265 162.310 C 259.842 162.480,264.164 162.690,268.867 162.777 C 273.571 162.864,278.297 163.065,279.370 163.223 C 280.443 163.381,285.911 163.603,291.523 163.717 C 299.432 163.877,301.916 164.020,302.572 164.351 C 303.189 164.663,303.526 164.690,303.811 164.453 C 304.091 164.221,305.355 164.215,308.216 164.434 C 310.423 164.602,314.733 164.740,317.794 164.740 C 324.053 164.741,324.553 164.885,323.104 166.270 C 321.826 167.491,322.255 167.356,324.387 165.866 C 325.390 165.165,326.535 164.389,326.931 164.141 C 337.249 157.688,346.254 146.209,348.469 136.684 C 349.790 131.003,349.917 129.841,349.558 126.742 C 349.102 122.812,348.942 122.793,349.181 126.696 C 349.368 129.768,348.928 132.818,348.349 132.460 C 347.881 132.170,336.452 131.429,330.500 131.302 C 327.052 131.229,323.016 131.034,321.530 130.869 C 320.045 130.704,315.549 130.489,311.539 130.390 C 307.529 130.292,303.546 130.077,302.687 129.912 C 301.828 129.747,297.980 129.486,294.137 129.333 C 290.293 129.179,286.985 128.947,286.785 128.818 C 286.585 128.688,284.059 128.492,281.170 128.381 C 278.282 128.270,274.906 128.120,273.668 128.047 C 263.991 127.477,259.944 127.157,257.577 126.774 C 256.009 126.521,252.850 126.332,250.184 126.332 C 247.490 126.332,244.534 126.153,243.169 125.908 C 241.872 125.675,239.020 125.410,236.833 125.318 C 234.645 125.226,232.619 125.030,232.332 124.882 C 232.044 124.734,229.030 124.524,225.635 124.416 C 222.240 124.308,218.999 124.083,218.433 123.916 C 217.867 123.749,215.147 123.480,212.388 123.318 C 209.629 123.156,207.021 122.890,206.592 122.727 C 206.163 122.564,204.370 122.422,202.606 122.412 C 200.843 122.402,198.387 122.269,197.149 122.116 C 195.911 121.964,192.873 121.698,190.398 121.527 C 187.922 121.355,185.559 121.039,185.146 120.826 C 184.639 120.564,182.732 120.412,179.265 120.357 L 174.135 120.277 173.930 122.179 M129.632 158.823 C 129.632 158.880,130.071 159.248,130.608 159.641 C 131.211 160.083,131.421 160.155,131.157 159.831 C 130.758 159.339,129.632 158.595,129.632 158.823 M133.983 162.196 C 134.314 162.465,134.854 162.817,135.184 162.979 L 135.784 163.274 135.184 162.785 C 134.854 162.517,134.314 162.164,133.983 162.002 L 133.383 161.707 133.983 162.196 M139.685 165.641 C 140.180 165.969,140.720 166.238,140.885 166.238 C 141.050 166.238,140.780 165.969,140.285 165.641 C 139.790 165.314,139.250 165.045,139.085 165.045 C 138.920 165.045,139.190 165.314,139.685 165.641 M141.335 166.370 C 141.335 166.594,144.687 168.091,144.841 167.937 C 144.904 167.875,144.241 167.503,143.370 167.111 C 142.498 166.720,141.684 166.352,141.560 166.295 C 141.437 166.238,141.335 166.272,141.335 166.370 M319.130 168.663 C 318.635 168.980,318.365 169.239,318.530 169.239 C 318.695 169.239,319.235 168.970,319.730 168.642 C 320.225 168.314,320.495 168.055,320.330 168.066 C 320.165 168.077,319.625 168.345,319.130 168.663 M146.569 168.802 C 146.889 169.044,147.362 169.238,147.619 169.232 C 147.919 169.225,147.818 169.067,147.337 168.792 C 146.355 168.231,145.823 168.238,146.569 168.802 M316.879 169.717 C 316.461 169.950,316.328 170.131,316.579 170.129 C 316.827 170.126,317.291 169.925,317.612 169.683 C 318.334 169.137,317.888 169.158,316.879 169.717 M151.838 170.593 C 152.251 170.829,152.791 171.021,153.038 171.020 C 153.286 171.020,153.034 170.822,152.479 170.581 C 151.201 170.026,150.858 170.032,151.838 170.593 M312.228 171.659 C 311.568 171.972,311.182 172.231,311.370 172.235 C 311.558 172.240,312.301 171.976,313.020 171.650 C 313.740 171.323,314.126 171.064,313.878 171.074 C 313.631 171.083,312.888 171.347,312.228 171.659 M155.889 171.804 C 156.384 172.030,157.127 172.213,157.539 172.209 C 157.994 172.205,157.698 172.038,156.789 171.786 C 154.933 171.271,154.733 171.275,155.889 171.804 M159.640 172.668 C 160.218 172.904,161.095 173.092,161.590 173.086 C 162.466 173.075,162.461 173.068,161.440 172.851 C 160.863 172.728,159.985 172.540,159.490 172.433 C 158.670 172.255,158.683 172.276,159.640 172.668 M309.377 172.712 C 308.709 172.965,308.545 173.112,308.927 173.116 C 309.257 173.119,309.865 172.929,310.278 172.693 C 311.194 172.169,310.790 172.178,309.377 172.712 M163.692 173.119 C 163.161 173.326,163.196 173.374,163.992 173.530 C 165.394 173.806,166.444 173.974,165.888 173.834 C 165.611 173.764,165.224 173.513,165.026 173.275 C 164.627 172.795,164.547 172.785,163.692 173.119 M306.677 173.618 C 306.260 173.850,306.126 174.032,306.377 174.028 C 306.624 174.025,307.164 173.829,307.577 173.593 C 307.989 173.358,308.125 173.173,307.877 173.183 C 307.629 173.194,307.089 173.389,306.677 173.618 M303.211 174.320 C 303.054 174.472,302.453 174.730,301.875 174.893 C 300.986 175.144,300.941 175.194,301.584 175.217 C 302.001 175.232,302.616 175.052,302.951 174.817 C 303.287 174.582,304.026 174.334,304.594 174.265 L 305.626 174.140 304.561 174.092 C 303.975 174.065,303.368 174.168,303.211 174.320 M169.795 174.639 C 170.182 174.807,171.262 175.007,172.196 175.082 C 173.626 175.197,173.704 175.180,172.693 174.977 C 169.899 174.417,169.060 174.318,169.795 174.639 M174.944 175.544 C 175.356 175.676,175.964 175.788,176.294 175.793 L 176.894 175.802 176.294 175.544 C 175.964 175.402,175.356 175.290,174.944 175.295 L 174.194 175.304 174.944 175.544 M298.725 175.544 C 297.960 175.872,298.749 175.872,299.775 175.544 C 300.378 175.351,300.407 175.302,299.925 175.295 C 299.595 175.290,299.055 175.402,298.725 175.544 M177.573 176.056 C 177.946 176.128,178.486 176.125,178.773 176.050 C 179.060 175.975,178.755 175.916,178.095 175.920 C 177.434 175.923,177.200 175.984,177.573 176.056 M296.549 176.051 C 296.838 176.126,297.311 176.126,297.599 176.051 C 297.888 175.975,297.652 175.914,297.074 175.914 C 296.497 175.914,296.260 175.975,296.549 176.051 M181.845 176.607 C 182.753 176.833,183.833 177.013,184.246 177.006 C 184.659 177.000,184.186 176.811,183.196 176.588 C 180.841 176.058,179.708 176.073,181.845 176.607 M293.173 176.444 C 292.926 176.604,292.386 176.753,291.973 176.774 C 291.560 176.796,291.431 176.870,291.685 176.939 C 291.939 177.008,292.885 176.866,293.786 176.624 C 295.041 176.286,295.214 176.180,294.524 176.168 C 294.029 176.160,293.421 176.284,293.173 176.444 M186.575 177.256 C 186.948 177.328,187.489 177.326,187.775 177.250 C 188.062 177.175,187.757 177.117,187.097 177.120 C 186.437 177.123,186.202 177.185,186.575 177.256 M288.601 177.256 C 288.974 177.328,289.514 177.326,289.801 177.250 C 290.088 177.175,289.782 177.117,289.122 177.120 C 288.462 177.123,288.227 177.185,288.601 177.256 M189.497 177.662 C 191.017 177.976,192.246 177.962,190.998 177.644 C 190.503 177.518,189.692 177.415,189.197 177.414 C 188.440 177.414,188.488 177.453,189.497 177.662 M286.218 177.498 C 286.134 177.582,285.065 177.767,283.842 177.909 C 281.955 178.128,281.846 178.168,283.121 178.177 C 284.607 178.187,288.199 177.449,286.997 177.380 C 286.653 177.360,286.303 177.413,286.218 177.498 M192.723 178.159 C 193.177 178.228,193.920 178.228,194.374 178.159 C 194.827 178.091,194.456 178.034,193.548 178.034 C 192.641 178.034,192.269 178.091,192.723 178.159 M197.299 178.562 C 197.959 178.698,198.837 178.802,199.250 178.792 C 200.441 178.763,198.473 178.316,197.149 178.315 L 196.099 178.314 197.299 178.562 M278.020 178.560 C 277.428 178.721,277.736 178.747,278.920 178.637 C 279.910 178.545,280.776 178.419,280.845 178.357 C 281.068 178.156,278.945 178.309,278.020 178.560 M200.975 179.062 C 201.512 179.128,202.389 179.128,202.926 179.062 C 203.462 178.995,203.023 178.941,201.950 178.941 C 200.878 178.941,200.439 178.995,200.975 179.062 M274.499 179.062 C 275.038 179.129,275.849 179.128,276.299 179.059 C 276.750 178.991,276.309 178.936,275.319 178.938 C 274.329 178.939,273.960 178.995,274.499 179.062 M208.252 179.587 C 209.655 179.814,211.613 179.990,212.603 179.977 L 214.404 179.954 212.153 179.740 C 210.915 179.622,208.957 179.447,207.802 179.350 L 205.701 179.175 208.252 179.587 M267.667 179.466 C 267.089 179.609,265.974 179.709,265.189 179.688 C 264.404 179.667,263.661 179.756,263.539 179.887 C 263.309 180.132,267.051 179.901,270.218 179.475 L 272.018 179.233 270.368 179.220 C 269.460 179.212,268.245 179.323,267.667 179.466 M219.739 180.266 C 220.528 180.328,221.743 180.327,222.440 180.264 C 223.136 180.201,222.491 180.151,221.005 180.152 C 219.520 180.152,218.950 180.204,219.739 180.266 M255.889 180.266 C 256.755 180.327,258.173 180.327,259.040 180.266 C 259.906 180.206,259.197 180.156,257.464 180.156 C 255.731 180.156,255.023 180.206,255.889 180.266 M228.657 180.682 C 234.187 180.921,245.434 180.919,250.113 180.679 C 252.093 180.578,247.097 180.495,239.010 180.495 C 230.659 180.495,226.186 180.576,228.657 180.682 " stroke="none" fill="#6ccecd" fill-rule="evenodd"></path></g></svg>